<?xml version="1.0" standalone="no"?>
<!DOCTYPE svg PUBLIC "-//W3C//DTD SVG 20010904//EN"
 "http://www.w3.org/TR/2001/REC-SVG-20010904/DTD/svg10.dtd">
<svg version="1.0" xmlns="http://www.w3.org/2000/svg"
 width="235.000000pt" height="235.000000pt" viewBox="0 0 235.000000 235.000000"
 preserveAspectRatio="xMidYMid meet">
<metadata>
Created by potrace 1.11, written by Peter Selinger 2001-2013
</metadata>
<g transform="translate(0.000000,235.000000) scale(0.100000,-0.100000)"
fill="#000000" stroke="none">
<path d="M885 2141 c-137 -48 -339 -118 -448 -155 -234 -81 -257 -97 -257
-173 0 -27 13 -200 30 -383 17 -183 30 -351 30 -371 0 -30 -10 -51 -40 -91
-42 -55 -80 -156 -80 -212 0 -18 7 -57 16 -87 68 -232 391 -418 816 -470 125
-15 434 -7 548 14 267 50 495 158 617 291 147 161 147 342 -1 504 l-52 57 7
225 c17 512 16 565 -6 590 -28 31 -18 27 -457 196 -267 103 -412 154 -436 153
-20 0 -149 -40 -287 -88z m689 -72 c215 -83 406 -159 424 -170 18 -10 39 -19
47 -19 25 0 23 -27 -3 -42 -24 -14 -891 -386 -934 -401 -15 -5 -17 -16 -13
-79 8 -105 36 -1080 32 -1084 -1 -2 -12 -1 -24 2 -19 5 -22 15 -27 77 -10 133
-38 1056 -32 1066 4 5 -22 22 -56 37 -35 16 -224 108 -420 206 -356 177 -358
178 -346 202 6 14 27 33 47 42 46 22 881 313 900 313 8 1 191 -67 405 -150z
m-1173 -669 c24 -14 25 -40 0 -40 -22 0 -45 25 -36 40 8 13 12 13 36 0z m450
-240 c23 -13 25 -40 3 -40 -24 0 -54 19 -54 35 0 17 23 19 51 5z m-205 -194
c13 -10 16 -18 9 -25 -12 -12 -56 7 -63 27 -5 17 30 15 54 -2z m992 5 c19 -12
-12 -41 -44 -41 -30 0 -31 14 -2 34 26 18 28 19 46 7z m-1187 -171 c10 -6 19
-15 19 -20 0 -14 -34 -12 -48 2 -26 26 -7 37 29 18z m434 -270 c10 -11 15 -23
11 -27 -9 -9 -58 18 -64 35 -6 20 33 14 53 -8z"/>
<path d="M560 1995 c-58 -17 -84 -36 -94 -72 -22 -73 176 -108 301 -53 43 19
62 52 50 84 -18 45 -160 68 -257 41z m125 -125 c4 -6 -14 -10 -47 -10 -38 0
-49 3 -38 10 20 13 77 13 85 0z"/>
<path d="M1048 1997 c-74 -21 -100 -43 -96 -80 2 -26 11 -36 43 -52 58 -29
192 -28 258 3 46 21 48 23 45 59 -3 32 -8 41 -39 56 -49 23 -152 30 -211 14z
m122 -127 c11 -7 -3 -10 -45 -9 -43 0 -54 3 -40 9 27 12 67 12 85 0z"/>
<path d="M1540 2000 c-65 -14 -95 -40 -95 -81 0 -52 52 -74 170 -74 111 0 168
23 173 68 4 34 -12 56 -53 73 -43 18 -142 25 -195 14z m110 -130 c11 -7 -1
-10 -40 -9 -40 0 -49 3 -35 9 27 12 57 12 75 0z"/>
</g>
</svg>
